<?xml version="1.0" encoding="utf-8"?>
<svg xmlns="http://www.w3.org/2000/svg" xmlns:xlink="http://www.w3.org/1999/xlink" version= "1.1" width="1618px" height="1000px" viewBox="-449 211 1618 1000">
<g id="layer1">
<g style="fill:rgb(5,180,205); fill-opacity:0.99607843; stroke-linejoin: miter">
<path d="M-450.49435,203.98047L363.51913,203.98097L1177.5326,203.98148L1177.5326,1220.3936Q363.51913,1220.394,-450.49435,1220.3945Q-450.49435,712.1875,-450.49435,203.98047"/>
</g>
<g style="fill:rgb(249,253,255); fill-opacity:0.19215687; stroke-linejoin: miter">
<path d="M373.621,271.182L304.013,275.48834Q167.44376,289.14032,52.05813,343.06635Q-5.635084,370.0293,-58.032314,407.06223Q-88.13726,419.88193,-202.11507,539.6232Q-413.13162,807.39856,-369.68765,1131.4746L1116.7582,1131.4629Q1160.4489,807.3857,949.35266,539.6164Q728.8783,280.72748,373.621,271.182 Z"/>
</g>
<g style="fill:rgb(0,0,0); fill-opacity:0.99607843; stroke-linejoin: miter">
<path d="M-65.62823,635.5873L-65.67742,635.4377Q-69.52584,618.52094,-70.55447,615.915Q-71.50428,612.9244,-72.582664,610.62665Q-76.821396,602.4784,-77.8506,599.4911Q-80.06918,593.2716,-80.80162,589.44446Q-82.39411,581.12866,-82.13886,577.5118Q-82.10976,575.14453,-81.74981,572.9388L-81.29017,570.7993Q-80.72892,568.7224,-79.79672,566.9109Q-77.904465,563.288,-74.85998,560.7239Q-72.75885,558.5043,-66.1741,555.9595Q-61.621098,554.4729,-55.99105,554.35974Q-49.63576,554.2244,-39.196365,555.7895Q-35.609238,555.64465,-33.947456,555.29456Q-29.557468,555.2567,-27.845877,548.16595Q-23.574442,553.59753,-22.824944,556.66345Q-21.05514,561.41956,-23.64317,573.9256L-38.27015,607.9113L-65.62823,635.5873"/>
</g>
<g style="fill:rgb(255,186,155); fill-opacity:0.99607843; stroke-linejoin: miter">
<path d="M-67.378716,643.01306L-67.37803,643.0141L-67.174,630.20667L-68.02897,625.463C-64.54333,624.8513,-61.888916,623.68,-60.17596,621.84424C-58.570873,620.124,-57.494514,617.706,-57.033035,614.6604C-56.63989,612.06573,-56.69108,610.19604,-56.888847,609.0602C-57.016968,608.3242,-57.091633,607.5835,-57.282814,606.87054C-58.504875,602.3134,-59.10171,599.90955,-59.002846,599.6397C-59.232784,598.4616,-59.26471,596.92816,-58.520256,595.2591C-56.810608,591.4261,-54.530422,590.07495,-52.171257,590.70844C-51.549862,590.87537,-50.716,591.4755,-49.57282,592.60486C-49.184143,592.9889,-47.76821,595.07007,-45.325905,598.91833C-44.730827,599.8559,-44.191578,600.1544,-44.011955,599.7946C-43.669132,599.10767,-43.61648,598.30664,-43.61832,597.4733C-43.631763,591.418,-43.572132,587.30005,-43.403004,585.1254C-43.092716,581.136,-42.651554,578.8522,-42.517483,578.1657C-41.743732,574.2045,-39.903767,570.45215,-36.009808,567.8364C-30.284473,563.9906,-25.397491,563.62335,-21.921034,565.8335C-18.260223,572.80725,-16.310656,577.47546,-15.783018,579.7783C-15.197829,582.33234,-15.480253,584.93994,-16.917059,587.6727C-10.576664,594.81366,-7.5201206,599.32324,-7.095636,601.08624C-6.5711684,603.2645,-8.218096,604.6078,-12.671135,605.30225C-11.478212,608.4307,-11.029812,610.43585,-11.111555,611.3454C-11.202777,612.36053,-11.90946,613.22955,-13.447385,613.94025C-12.257406,613.98,-11.67029,614.7351,-11.776945,616.1999C-11.871357,617.4967,-12.461012,619.6918,-13.455163,622.79315C-12.680071,626.15173,-12.372053,628.65533,-12.754736,630.2562C-13.124808,631.80426,-13.765918,632.7144,-14.45699,633.04517C-15.422167,633.97577,-18.150122,634.80066,-22.640911,635.52L-30.630165,633.9807L-38.018997,651.5905L-67.378716,643.01306 Z"/>
</g>
<g style="fill:rgb(0,0,0); fill-opacity:0.99607843; stroke-linejoin: miter">
<path d="M-41.62844,542.391L-41.627598,542.391L-41.62844,542.391L-41.627598,542.391"/>
</g>
<g style="fill:rgb(253,217,8); fill-opacity:1.0; stroke-linejoin: miter">
<path d="M339.6291,528.41016L340.7691,507.19977Q350.0436,443.01944,398.70618,403.9624Q447.71,364.92648,514.9118,371.2761Q579.0922,380.5498,618.15106,429.2115Q630.66754,444.94284,638.88556,463.58368L645.83795,482.76642Q651.6215,502.58435,651.97296,524.20844Q651.1895,590.5961,607.7132,635.2571Q564.2375,679.9151,497.89642,682.483Q431.51004,681.69836,386.8514,638.2241Q342.19324,594.7497,339.6291,528.41016 Z"/>
</g>
<g style="fill:rgb(238,170,1); fill-opacity:1.0; stroke-linejoin: miter">
<path d="M364.06946,527.6872L365.03412,509.79663Q372.858,455.6616,413.90308,422.71478Q455.23788,389.79077,511.92307,395.1462Q566.0568,402.96878,599.0036,444.01627Q609.55927,457.28604,616.4899,473.00708L622.35675,489.18884Q627.23456,505.90308,627.5312,524.1448Q626.8708,580.14233,590.19794,617.8117Q553.528,655.483,497.56747,657.6481Q441.57245,656.9858,403.90378,620.3161Q366.23535,583.6446,364.06946,527.6872 Z"/>
</g>
<g style="fill:rgb(255,183,13); fill-opacity:1.0; stroke-linejoin: miter">
<path d="M367.28915,527.5936L368.23022,510.14008Q375.8629,457.32816,415.90494,425.1866Q456.2294,393.06714,511.52948,398.29175Q564.3403,405.9232,596.4819,445.9674Q606.7797,458.91306,613.5407,474.2496L619.2642,490.0362Q624.0229,506.34183,624.3122,524.13776Q623.668,578.76685,587.8914,615.5155Q552.1176,652.26624,497.52478,654.37854Q442.8982,653.7323,406.14996,617.95886Q369.40222,582.18317,367.28915,527.5936 Z"/>
</g>
<g>
<g>
<g style="fill:rgb(244,174,3); fill-opacity:1.0; stroke-linejoin: miter">
<path d="M490.2559,468.19147Q490.55722,468.19147,490.86093,468.19266Q503.52014,468.24335,510.97916,473.6438Q518.2463,479.04352,518.2026,489.9766Q518.1574,501.29303,511.22925,507.01965Q504.36664,512.5028,491.50217,512.50287Q491.38092,512.50287,491.2591,512.5024L477.25726,512.44635L477.43134,468.90625Q479.92636,468.5326,483.57153,468.35532Q486.7514,468.19147,490.2559,468.19147 Z M477.19278,528.5582L493.30453,528.6226Q500.2097,528.65015,506.15033,530.01654Q512.0917,531.1912,516.4909,534.2778Q520.69916,537.1718,523.1727,542.16864Q525.64703,546.9738,525.6187,554.07074Q525.58954,561.3594,522.8851,566.14386Q520.18134,570.7364,515.56647,573.5951Q510.9524,576.26196,504.80994,577.3883Q499.0015,578.4884,492.28375,578.48846Q492.1193,578.48846,491.95428,578.48785Q487.92633,578.4717,483.70734,578.26306Q479.68018,578.055,476.99643,577.6607L477.19278,528.5582 Z M487.92316,452.83838Q479.65186,452.83838,471.54752,453.34607Q462.9139,453.887,458.11484,454.82693L457.56332,592.73596Q465.23175,593.72577,473.86,594.5274Q482.489,595.1374,489.77768,595.16656Q490.0362,595.16766,490.29404,595.16766Q501.70694,595.1676,511.8439,593.1448Q522.01807,591.0756,529.70953,586.3111Q537.2093,581.54584,541.65216,573.69934Q546.0944,566.04474,546.139,554.92Q546.1757,545.7132,543.32465,539.18036Q540.66473,532.83984,536.2701,528.60254Q531.8753,524.3652,526.3222,522.04126Q520.9608,519.7181,515.59247,519.12115Q519.8169,517.98724,523.8555,515.318Q527.8935,512.84076,530.9786,508.82495Q534.0627,505.00113,536.0015,499.83005Q537.74774,494.8499,537.77155,488.90384Q537.8106,479.1217,534.1939,472.20215Q530.76825,465.47507,524.26447,461.03748Q517.9517,456.79242,508.9445,454.83832Q499.93723,452.8842,489.00418,452.84048Q488.46332,452.83838,487.92316,452.83838 Z"/>
</g>
</g>
<g>
<g style="fill:rgb(244,174,3); fill-opacity:1.0; stroke-linejoin: miter">
<path d="M500.45422,467.41498Q500.7555,467.41498,501.05917,467.41617Q513.71844,467.4668,521.1774,472.8673Q528.44464,478.2671,528.40094,489.20004Q528.35565,500.5166,521.42755,506.2433Q514.565,511.72632,501.70044,511.72632Q501.57913,511.72632,501.45737,511.7258L487.45547,511.66992L487.62967,468.12976Q490.1247,467.7561,493.76974,467.57883Q496.94965,467.41498,500.45422,467.41498 Z M487.39105,527.7817L503.50287,527.846Q510.40784,527.8737,516.3486,529.2401Q522.29,530.4147,526.68915,533.50134Q530.8974,536.3952,533.3709,541.3923Q535.8453,546.1973,535.81696,553.29425Q535.7878,560.5829,533.0832,565.3674Q530.3796,569.9599,525.7647,572.81854Q521.1507,575.4855,515.0083,576.6119Q509.19977,577.712,502.48203,577.712Q502.3175,577.712,502.15262,577.71124Q498.12466,577.6951,493.90567,577.4865Q489.87845,577.2786,487.19467,576.8843L487.39105,527.7817 Z M498.12143,452.0619Q489.85007,452.0619,481.7458,452.56958Q473.11212,453.1105,468.3131,454.05038L467.76154,591.9595Q475.43008,592.9492,484.0583,593.751Q492.68723,594.36096,499.97595,594.39Q500.2344,594.39105,500.49225,594.39105Q511.9052,594.39105,522.04224,592.36835Q532.2164,590.29913,539.9078,585.5346Q547.4074,580.76935,551.8505,572.92285Q556.29266,565.26825,556.3372,554.1435Q556.37396,544.9367,553.523,538.4039Q550.8631,532.06335,546.46844,527.826Q542.07367,523.5886,536.52045,521.2648Q531.1591,518.9416,525.79083,518.34467Q530.0151,517.21075,534.0538,514.54156Q538.09174,512.06415,541.1767,508.04843Q544.2609,504.2246,546.19977,499.0535Q547.946,494.07336,547.9698,488.1274Q548.00885,478.34525,544.39215,471.42566Q540.9665,464.6986,534.4627,460.26102Q528.14996,456.01593,519.14276,454.06183Q510.1355,452.1077,499.2024,452.06403Q498.6616,452.0619,498.12143,452.0619 Z"/>
</g>
</g>
<g style="fill:rgb(244,174,3); fill-opacity:1.0; stroke-linejoin: miter">
<path d="M471.36853,439.40314L490.24634,439.54047L490.12457,456.3862L471.24677,456.2506L471.36853,439.40314 Z"/>
</g>
<g style="fill:rgb(244,174,3); fill-opacity:1.0; stroke-linejoin: miter">
<path d="M500.17657,439.6112L519.05444,439.74854L518.93274,456.5944L500.05487,456.45886L500.17657,439.6112 Z"/>
</g>
<g style="fill:rgb(244,174,3); fill-opacity:1.0; stroke-linejoin: miter">
<path d="M498.10507,588.7396L516.9827,588.8769L516.8209,611.2515L497.9433,611.11597L498.10507,588.7396 Z"/>
</g>
<g style="fill:rgb(244,174,3); fill-opacity:1.0; stroke-linejoin: miter">
<path d="M470.0516,594.0664L488.92935,594.2038L488.8076,611.0492L469.92984,610.9136L470.0516,594.0664 Z"/>
</g>
<g style="fill:rgb(244,174,3); fill-opacity:1.0; stroke-linejoin: miter">
<path d="M478.30423,452.08252L438.66232,451.79694L438.49017,475.612L478.13214,475.89935L478.30423,452.08252 Z"/>
</g>
<g style="fill:rgb(244,174,3); fill-opacity:1.0; stroke-linejoin: miter">
<path d="M477.43625,572.11475L437.7945,571.8291L437.6223,595.6442L477.2641,595.9316L477.43625,572.11475 Z"/>
</g>
</g>
<g>
<g>
<g style="fill:rgb(253,217,8); fill-opacity:1.0; stroke-linejoin: miter">
<path d="M488.12668,467.4426Q488.42798,467.4426,488.73175,467.44382Q501.39096,467.49448,508.85,472.89493Q516.1171,478.2947,516.0735,489.2277Q516.0282,500.54422,509.1001,506.27084Q502.2374,511.754,489.373,511.75406Q489.25174,511.75406,489.12997,511.7536L475.12802,511.69757L475.30215,468.1574Q477.79718,467.78375,481.4423,467.6065Q484.62228,467.4426,488.12668,467.4426 Z M475.06363,527.8093L491.17538,527.8738Q498.08044,527.9013,504.02112,529.26776Q509.96243,530.44244,514.36176,533.52893Q518.57,536.42285,521.0435,541.41986Q523.5179,546.225,523.4895,553.32184Q523.4604,560.61053,520.7559,565.395Q518.0522,569.9876,513.4373,572.84625Q508.8232,575.5131,502.68076,576.63947Q496.87234,577.73956,490.15457,577.7396Q489.9901,577.7396,489.8251,577.73895Q485.79712,577.7228,481.57816,577.5142Q477.551,577.3062,474.86725,576.91187L475.06363,527.8093 Z M485.794,452.08954Q477.52264,452.08954,469.4183,452.5973Q460.7847,453.13818,455.9857,454.07806L455.43408,591.9871Q463.10254,592.97687,471.7308,593.7786Q480.3598,594.3885,487.6485,594.4178Q487.90698,594.41876,488.1649,594.41876Q499.57776,594.4187,509.71472,592.396Q519.88885,590.3268,527.5804,585.5623Q535.08,580.79706,539.523,572.9505Q543.96515,565.29584,544.0097,554.17114Q544.0466,544.96436,541.1955,538.4315Q538.5356,532.091,534.1409,527.85364Q529.74615,523.6164,524.19305,521.2924Q518.8316,518.9693,513.46326,518.3724Q517.6877,517.2384,521.7264,514.56915Q525.76434,512.09186,528.8493,508.07617Q531.93353,504.2523,533.8724,499.08124Q535.6186,494.10114,535.6424,488.15506Q535.68146,478.3729,532.06476,471.45328Q528.6391,464.7263,522.1353,460.28867Q515.8226,456.04358,506.8153,454.08942Q497.80804,452.13535,486.8751,452.09164Q486.33414,452.08954,485.794,452.08954 Z"/>
</g>
</g>
<g>
<g style="fill:rgb(253,217,8); fill-opacity:1.0; stroke-linejoin: miter">
<path d="M498.32504,466.6662Q498.62637,466.6662,498.93005,466.66748Q511.58936,466.7181,519.0484,472.11856Q526.3155,477.51834,526.2718,488.45132Q526.2265,499.76785,519.2984,505.49448Q512.43585,510.97763,499.57132,510.97763Q499.45,510.97763,499.3282,510.9771L485.32635,510.92114L485.50055,467.38098Q487.99557,467.00735,491.64062,466.83014Q494.82056,466.6662,498.32504,466.6662 Z M485.26193,527.03296L501.37375,527.09735Q508.27878,527.12494,514.2194,528.4914Q520.1608,529.66595,524.5602,532.7525Q528.76825,535.64655,531.24176,540.6435Q533.71625,545.4486,533.6878,552.5455Q533.6586,559.83417,530.95416,564.6186Q528.25055,569.21124,523.6356,572.0699Q519.02155,574.73676,512.87915,575.8631Q507.07065,576.9632,500.3529,576.9632Q500.18845,576.9632,500.02344,576.9626Q495.99548,576.94635,491.77655,576.73785Q487.74933,576.52985,485.06558,576.13544L485.26193,527.03296 Z M495.99225,451.31314Q487.72098,451.31314,479.6166,451.8209Q470.98303,452.36182,466.18402,453.3017L465.63245,591.21075Q473.30093,592.2005,481.92917,593.00226Q490.55817,593.6122,497.84677,593.64136Q498.10535,593.64233,498.36316,593.64233Q509.77615,593.64233,519.913,591.6196Q530.0872,589.5505,537.77875,584.7859Q545.2784,580.0206,549.7214,572.17413Q554.16364,564.51953,554.20807,553.3948Q554.24493,544.188,551.39386,537.65515Q548.73395,531.31464,544.3392,527.0772Q539.9445,522.8399,534.3913,520.51605Q529.02997,518.19293,523.6617,517.596Q527.88605,516.46204,531.92474,513.7928Q535.9626,511.31546,539.04767,507.29968Q542.1319,503.4758,544.0706,498.3048Q545.81683,493.32468,545.84064,487.37866Q545.8798,477.59647,542.2631,470.67694Q538.83746,463.94986,532.33356,459.51224Q526.0209,455.26724,517.0136,453.31305Q508.00638,451.35892,497.07333,451.31525Q496.53247,451.31314,495.99225,451.31314 Z"/>
</g>
</g>
<g style="fill:rgb(253,217,8); fill-opacity:1.0; stroke-linejoin: miter">
<path d="M469.23932,438.65427L488.11716,438.79153L487.99545,455.63736L469.11755,455.50186L469.23932,438.65427 Z"/>
</g>
<g style="fill:rgb(253,217,8); fill-opacity:1.0; stroke-linejoin: miter">
<path d="M498.04752,438.8624L516.92523,438.99966L516.8035,455.84564L497.9258,455.71008L498.04752,438.8624 Z"/>
</g>
<g style="fill:rgb(253,217,8); fill-opacity:1.0; stroke-linejoin: miter">
<path d="M495.9758,587.9907L514.85345,588.1281L514.6918,610.50287L495.81406,610.3673L495.9758,587.9907 Z"/>
</g>
<g style="fill:rgb(253,217,8); fill-opacity:1.0; stroke-linejoin: miter">
<path d="M467.92242,593.3177L486.8002,593.4551L486.67844,610.30035L467.8007,610.1648L467.92242,593.3177 Z"/>
</g>
<g style="fill:rgb(253,217,8); fill-opacity:1.0; stroke-linejoin: miter">
<path d="M476.1751,451.33383L436.53326,451.04822L436.36108,474.86322L476.0029,475.1505L476.1751,451.33383 Z"/>
</g>
<g style="fill:rgb(253,217,8); fill-opacity:1.0; stroke-linejoin: miter">
<path d="M475.3071,571.366L435.66534,571.08044L435.4932,594.8956L475.13495,595.183L475.3071,571.366 Z"/>
</g>
</g>
<g style="fill:rgb(255,229,0); fill-opacity:0.99607843; stroke-linejoin: miter">
<path d="M475.09747,571.3649L474.8944,571.3637L474.8944,571.3642L474.8944,571.3637L475.09747,571.3649 Z"/>
</g>
<g style="fill:rgb(255,229,0); fill-opacity:0.99607843; stroke-linejoin: miter">
<path d="M474.88797,571.3633L474.88797,571.3637L474.8944,571.3642L474.8944,571.3637L474.88797,571.3633 Z"/>
</g>
<g style="fill:rgb(255,229,0); fill-opacity:0.99607843; stroke-linejoin: miter">
<path d="M475.06284,527.81464L474.88797,571.3633L475.09747,571.3649L474.88797,571.3637L475.06284,527.81464 Z"/>
</g>
<g style="fill:rgb(17,68,95); fill-opacity:0.99607843; stroke-linejoin: miter">
<path d="M-2.0096288,1062.0576L429.38034,1062.0582L860.7703,1062.0586Q860.7703,1099.0388,860.7703,1136.0189Q429.38034,1136.0193,-2.0096269,1136.0198Q-2.0096288,1099.0388,-2.0096288,1062.0576"/>
</g>
<g style="fill:rgb(17,68,95); fill-opacity:0.99607843; stroke-linejoin: miter">
<path d="M540.3671,755.7113L606.8057,755.7119L673.24457,755.71246Q673.2447,931.6018,673.2447,1107.491Q606.8059,1107.4915,540.3672,1107.4921Q540.3672,931.6018,540.3671,755.7113"/>
</g>
<g style="fill:rgb(17,68,95); fill-opacity:0.99607843; stroke-linejoin: miter">
<path d="M389.37604,843.55206L522.2536,843.55316L522.2536,1107.491L389.37604,1107.4921L389.37604,843.55206"/>
</g>
<g style="fill:rgb(17,68,95); fill-opacity:0.99607843; stroke-linejoin: miter">
<path d="M238.38498,914.0912L304.82376,914.09174L371.26257,914.09235Q371.26257,1010.7916,371.26257,1107.491Q304.82376,1107.4915,238.385,1107.4921Q238.385,1010.79156,238.38498,914.0912"/>
</g>
<g style="fill:rgb(17,68,95); fill-opacity:0.99607843; stroke-linejoin: miter">
<path d="M691.3581,652.59045L757.7968,652.59094L824.2356,652.59155Q824.2358,880.0413,824.2358,1107.491Q757.79694,1107.4915,691.3582,1107.4921Q691.3582,880.0413,691.3581,652.59045"/>
</g>
<g style="fill:rgb(17,68,95); fill-opacity:1.0; stroke-linejoin: miter">
<path d="M234.66873,855.58057L234.66873,855.58057L234.6686,855.5815L222.5878,848.0269L431.24295,712.0752C432.83417,711.0384,434.74716,710.61334,436.62772,710.8786L436.62772,710.8786L534.6883,724.7136L528.9742,726.1368L756.28973,560.96356C759.79877,558.41376,764.7105,559.19147,767.2602,562.7005C769.81006,566.2096,769.0325,571.12115,765.52325,573.671L765.52325,573.671L538.2078,738.8443C536.55975,740.04175,534.51105,740.55206,532.49384,740.26746L532.49384,740.26746L434.43326,726.43243L439.81802,725.23596L231.16286,861.1877C228.6011,862.8568,225.30356,862.8875,222.71115,861.2664C220.11874,859.6453,218.70279,856.66705,219.08203,853.6332L219.08203,853.6332L219.08217,853.63214C219.62016,849.32806,223.5455,846.275,227.84961,846.813C232.15372,847.3511,235.20674,851.27637,234.66873,855.58057 Z"/>
</g>
<g style="fill:rgb(17,68,95); fill-opacity:0.99607843; stroke-linejoin: miter">
<path d="M736.1629,546.524L736.1628,546.5241L771.56396,597.8863Q775.5542,576.1954,779.54443,554.5044L736.1629,546.524"/>
</g>
<g style="fill:rgb(255,255,255); fill-opacity:0.99607843; stroke-linejoin: miter">
<path d="M-71.019646,637.1085L-69.30635,630.7775L-35.900757,648.65405L-37.937447,656.93896Q-28.048544,672.1403,-25.475983,682.02075Q-22.48023,691.4944,-21.23281,715.00146L-71.019646,637.1085"/>
</g>
<g style="fill:rgb(0,0,0); fill-opacity:0.99607843; stroke-linejoin: miter">
<path d="M-145.0219,1102.5187L-144.24516,1104.1953Q-140.03885,1113.6157,-136.39429,1116.5919Q-134.52072,1118.3108,-131.4024,1118.6819L-118.70451,1118.49Q-114.84459,1120.2386,-112.50186,1127.8552Q-125.044106,1135.6266,-133.57454,1135.6458Q-143.01111,1138.7327,-175.35617,1109.805L-179.51639,1117.5624L-199.94629,1105.2795L-191.71373,1088.9679L-193.85023,1086.1161L-167.55717,1028.7388Q-111.60149,881.06396,-111.01824,882.9088Q-127.828445,875.6067,-133.32411,866.89197L-117.20822,801.0244Q-114.96983,791.45715,-113.385254,781.2241Q-111.805244,770.9903,-111.46657,760.35016L-111.382195,713.3001Q-110.76915,703.3772,-108.327354,694.5408Q-102.93569,676.78076,-94.66945,664.6498Q-84.63942,649.0093,-72.16581,638.25165L-70.34438,634.1026L-57.739403,641.653Q-37.81587,661.8238,-33.208527,672.8373L-16.76015,715.8079Q-12.139685,729.6598,-10.897746,738.4716Q-6.152338,769.1837,-8.575328,834.76245L57.51376,884.68097L50.47128,1027.9924L28.367073,1029.1255L37.497128,1042.4143L56.24524,1054.3562Q58.479618,1056.0497,57.603947,1058.8698Q56.836334,1061.3374,53.39518,1066.025L36.315155,1065.9453Q19.683737,1065.2549,6.0417876,1055.2476L2.3670695,1060.6465L-20.896505,1054.0381Q-21.51086,1034.2529,-10.147641,1021.997L1.1011516,964.4459L8.281765,907.4354L-45.62409,883.89417Q-48.54878,886.8471,-64.059105,930.2899L-145.0219,1102.5187"/>
</g>
<g style="fill:rgb(0,0,0); fill-opacity:0.99607843; stroke-linejoin: miter">
<path d="M-37.839485,654.0609L-41.91861,659.97565L-38.034996,664.95544Q-36.670616,673.66656,-35.582825,677.37164Q-34.567356,681.1926,-31.725296,687.53314L-21.869099,701.4761Q-23.5025,690.7196,-24.535278,685.4691Q-25.75138,679.03455,-27.295786,674.5002Q-29.651323,667.9238,-33.814335,662.8276L-37.839485,654.0609"/>
</g>
<g style="fill:rgb(254,186,155); fill-opacity:1.0; stroke-linejoin: miter">
<path d="M-68.05436,871.8782L-58.845745,883.6304L-62.788918,891.9425L-65.89853,889.51697L-64.05441,884.05176L-66.8857,883.1096L-65.8944,897.70044L-73.163246,899.17725L-74.09467,894.931Q-73.76513,896.10095,-76.597305,895.9348Q-81.72919,895.64905,-85.747025,894.5941Q-88.75624,893.854,-91.25261,892.5437Q-92.47186,891.8843,-93.38968,891.05725L-94.21048,890.18616Q-94.94144,889.2709,-95.372894,888.20886Q-95.73084,887.74756,-96.14325,884.76636Q-96.30723,881.02673,-95.66252,876.891L-68.05436,871.8782"/>
</g>
<g style="fill:rgb(0,0,0); fill-opacity:0.99607843; stroke-linejoin: miter">
<path d="M-30.504143,590.0437L-30.259155,589.6508Q-28.694468,587.02856,-27.301842,585.9561Q-26.990793,585.7217,-26.659666,585.5354Q-26.503885,585.41876,-25.630215,585.06354Q-24.747658,584.7291,-23.04663,584.39795Q-25.315557,585.75793,-26.56906,586.7245Q-27.8014,587.63995,-30.504143,590.0437"/>
</g>
<g style="fill:rgb(0,0,0); fill-opacity:0.99607843; stroke-linejoin: miter">
<path d="M-25.290344,595.49506L-25.290344,595.49506L-25.290344,595.4959L-25.290344,595.49506"/>
</g>
<g style="fill:rgb(255,255,255); fill-opacity:0.99607843; stroke-linejoin: miter">
<path d="M-27.313616,591.7864L-27.313616,591.78705L-24.251835,587.29614Q-23.294369,587.7684,-22.942726,588.2443Q-22.568432,588.6775,-22.074306,590.0235L-27.313616,591.7864"/>
</g>
<g style="fill:rgb(0,0,0); fill-opacity:0.99607843; stroke-linejoin: miter">
<path d="M-24.296333,587.2847L-24.423698,589.4419L-22.216194,590.0199Q-22.347271,589.2359,-22.473705,588.85675Q-22.607412,588.4851,-22.650438,588.4279Q-22.7196,588.29553,-22.806078,588.18134Q-22.892971,588.0677,-22.997103,587.9719Q-23.040745,587.9153,-23.340406,587.71716Q-23.647429,587.5267,-24.296333,587.2847"/>
</g>
<g style="fill:rgb(0,0,0); fill-opacity:0.99607843; stroke-linejoin: miter">
<path d="M65.59657,825.0822L65.59657,825.0827L65.59657,825.08295L65.59657,825.0822"/>
</g>
<g style="fill:rgb(255,0,0); fill-opacity:0.99607843; stroke-linejoin: miter">
<path d="M4.445004,533.0096L4.445004,533.0096L4.445004,533.0096L4.445004,533.0096"/>
</g>
<g style="fill:rgb(17,68,95); fill-opacity:0.99607843; stroke-linejoin: miter">
<path d="M87.39393,972.0068L153.8327,972.00726L220.27148,972.00775Q220.2715,1043.0276,220.2715,1114.0472Q153.83272,1114.0477,87.393936,1114.0482Q87.39393,1043.0276,87.39393,972.0068"/>
</g>
<g style="fill:rgb(15,59,82); fill-opacity:0.99607843; stroke-linejoin: miter">
<path d="M-2.2156777,1132.9069L429.35095,1132.9073L860.91766,1132.9077Q860.91766,1135.7954,860.91766,1138.683Q429.35095,1138.6835,-2.2156777,1138.684Q-2.2156777,1135.7954,-2.2156777,1132.9069"/>
</g>
<g style="fill:rgb(15,59,82); fill-opacity:0.99607843; stroke-linejoin: miter">
<path d="M-2.0898156,1062.3682L861.0434,1062.3691L861.0434,1068.1443L-2.0898156,1068.1453L-2.0898156,1062.3682"/>
</g>
<g style="fill:rgb(15,59,82); fill-opacity:0.99607843; stroke-linejoin: miter">
<path d="M691.19794,652.56476L696.9277,652.5652L702.6574,652.5656Q702.65753,858.50543,702.65753,1064.4453Q696.9279,1064.4457,691.19806,1064.4462Q691.19806,858.5055,691.19794,652.56476"/>
</g>
<g style="fill:rgb(15,59,82); fill-opacity:0.99607843; stroke-linejoin: miter">
<path d="M538.9699,755.7331L544.69965,755.7336L550.4294,755.7341Q550.42944,910.68335,550.42944,1065.6323Q544.6997,1065.6328,538.9701,1065.6333Q538.9701,910.6833,538.9699,755.7331"/>
</g>
<g style="fill:rgb(15,59,82); fill-opacity:0.99607843; stroke-linejoin: miter">
<path d="M388.91092,843.44275L394.64066,843.44324L400.37036,843.44366Q400.37036,954.1569,400.37036,1064.87Q394.64066,1064.8705,388.91092,1064.8708Q388.91092,954.1569,388.91092,843.44275"/>
</g>
<g style="fill:rgb(15,59,82); fill-opacity:0.99607843; stroke-linejoin: miter">
<path d="M192.23749,427.44485L192.23747,427.4451L192.23746,427.44537L192.23747,427.4451L192.23749,427.44485L192.23747,427.4451L192.23746,427.44537Q192.23747,427.4451,192.23749,427.44485"/>
</g>
<g style="fill:rgb(15,59,82); fill-opacity:0.99607843; stroke-linejoin: miter">
<path d="M235.52066,913.90826L241.25038,913.90875L246.98009,913.9091Q246.98009,988.7372,246.9801,1063.5653Q241.2504,1063.5658,235.52068,1063.5662Q235.52066,988.73724,235.52066,913.90826"/>
</g>
<g style="fill:rgb(15,59,82); fill-opacity:0.99607843; stroke-linejoin: miter">
<path d="M125.7526,690.19855L125.75258,690.1987L125.752556,690.199L125.75258,690.1987L125.7526,690.19855L125.75258,690.1987L125.752556,690.199Q125.75258,690.1987,125.7526,690.19855"/>
</g>
<g style="fill:rgb(15,59,82); fill-opacity:0.99607843; stroke-linejoin: miter">
<path d="M87.30873,971.8621L93.03844,971.8626L98.76815,971.86304Q98.76815,1020.1674,98.76815,1068.4718Q93.03844,1068.4723,87.30873,1068.4727Q87.30873,1020.1674,87.30873,971.8621"/>
</g>
</g>
</svg>